<svg preserveAspectRatio="none" overflow="visible" style="display: block;" width="152" height="57.0035" viewBox="0 0 152 57.0035" fill="none" xmlns="http://www.w3.org/2000/svg">
<g id="Logo VCA">
<path id="Vector" d="M0 0.10565H18.648V0.429613L12.3968 2.91216L25.0081 45.0169L32.2296 20.0787C33.309 16.6243 33.8469 13.6734 33.8469 11.2261C33.8469 9.1379 33.4145 7.35962 32.5531 5.88066C31.6917 4.40521 30.2889 3.05654 28.3482 1.83111L25.0081 0.426092V0.10565H43.1147V0.429613C40.5973 2.803 38.6953 5.39471 37.4014 8.20122C36.1076 11.0077 34.7083 14.8953 33.1965 19.8604L22.417 56.9965H21.9845L5.28078 2.91216L0 0.429613V0.10565Z" fill="#E9E5DA"/>
<path id="Vector_2" d="M52.2804 30.1392C52.4879 30.7765 51.8339 30.9174 51.5316 30.3399C47.5059 22.3641 47.2633 15.6031 50.628 9.77173C53.9926 3.94038 59.9379 0.813428 68.847 0.327483C69.5221 0.257056 69.726 0.894419 69.0721 1.03175C64.1253 2.02829 58.8586 6.47223 55.3709 12.5184C51.8832 18.5645 50.6456 25.3924 52.2804 30.1427V30.1392Z" fill="#E9E5DA"/>
<path id="Vector_3" d="M152 57H133.352V56.676L139.603 54.1935L126.992 12.0888L119.77 37.0269C118.691 40.4814 118.153 43.4323 118.153 45.8796C118.153 47.9678 118.586 49.746 119.447 51.225C120.308 52.7004 121.711 54.0491 123.652 55.2746L126.992 56.6796V57.0035H108.885V56.6796C111.403 54.3062 113.305 51.7145 114.599 48.908C115.892 46.1014 117.292 42.2139 118.804 37.2488L129.58 0.10565H130.012L146.719 54.1935L152 56.676V57Z" fill="#E9E5DA"/>
<path id="Vector_4" d="M99.7196 26.9629C99.5121 26.3256 100.166 26.1847 100.468 26.7622C104.494 34.7381 104.737 41.4991 101.372 47.3304C98.0074 53.1617 92.0621 56.2887 83.153 56.7746C82.4779 56.8451 82.274 56.2077 82.928 56.0704C87.8747 55.0738 93.1415 50.6299 96.6292 44.5838C100.117 38.5376 101.354 31.7097 99.7196 26.9594V26.9629Z" fill="#E9E5DA"/>
<path id="Vector_5" d="M148.99 3.5636C148.99 5.57429 147.401 7.14833 145.376 7.14833C143.351 7.14833 141.762 5.57077 141.762 3.5636C141.762 1.55643 143.376 0 145.376 0C147.377 0 148.99 1.57756 148.99 3.5636ZM142.637 3.5636C142.637 5.16229 143.812 6.41941 145.376 6.41941C146.941 6.41941 148.094 5.16229 148.094 3.5636C148.094 1.96491 146.944 0.728918 145.376 0.728918C143.808 0.728918 142.637 2.00717 142.637 3.5636ZM144.8 5.41583H144.04V1.87336C144.339 1.80645 144.754 1.73602 145.33 1.73602C145.974 1.73602 146.276 1.84871 146.529 2.03182C146.737 2.16915 146.899 2.44381 146.899 2.78538C146.899 3.19738 146.554 3.49317 146.139 3.63051V3.67628C146.508 3.78897 146.67 4.06363 146.782 4.54606C146.899 5.07074 146.965 5.29962 147.036 5.41583H146.231C146.114 5.2785 146.048 4.9827 145.953 4.54606C145.882 4.17984 145.654 3.99673 145.193 3.99673H144.803V5.41231L144.8 5.41583ZM144.824 3.40514H145.214C145.675 3.40514 146.044 3.26781 146.044 2.90159C146.044 2.56002 145.812 2.35226 145.285 2.35226C145.053 2.35226 144.916 2.37339 144.824 2.39804V3.40162V3.40514Z" fill="#E9E5DA"/>
</g>
</svg>
