<svg preserveAspectRatio="none" overflow="visible" style="display: block;" width="15.218" height="15.0491" viewBox="0 0 15.218 15.0491" fill="none" xmlns="http://www.w3.org/2000/svg">
<path id="Vector" d="M15.218 7.50232C15.218 11.7353 11.8724 15.0491 7.609 15.0491C3.34559 15.0491 0 11.7279 0 7.50232C0 3.2767 3.3974 0 7.609 0C11.8206 0 15.218 3.32118 15.218 7.50232ZM1.84305 7.50232C1.84305 10.868 4.31522 13.5145 7.609 13.5145C10.9028 13.5145 13.3306 10.868 13.3306 7.50232C13.3306 4.13665 10.9102 1.53456 7.609 1.53456C4.30782 1.53456 1.84305 4.22561 1.84305 7.50232ZM6.39513 11.4017H4.79634V3.94391C5.42549 3.80305 6.29889 3.65478 7.51278 3.65478C8.8673 3.65478 9.50385 3.89201 10.0368 4.27751C10.4735 4.56663 10.814 5.14487 10.814 5.86396C10.814 6.73133 10.0886 7.35405 9.21519 7.64317V7.73954C9.99238 7.97677 10.3328 8.55501 10.5697 9.57064C10.814 10.6752 10.9546 11.1571 11.1026 11.4017H9.40765C9.16339 11.1126 9.02275 10.4899 8.8229 9.57064C8.67487 8.79965 8.19375 8.41416 7.22412 8.41416H6.40251V11.3943L6.39513 11.4017ZM6.44694 7.16872H7.26853C8.23816 7.16872 9.01535 6.87959 9.01535 6.10861C9.01535 5.38951 8.52683 4.95212 7.41657 4.95212C6.92806 4.95212 6.63939 4.9966 6.44694 5.0485V7.1613V7.16872Z" fill="#0C0C0C"/>
</svg>
