<svg preserveAspectRatio="none" overflow="visible" style="display: block;" width="157.333" height="59.0037" viewBox="0 0 157.333 59.0037" fill="none" xmlns="http://www.w3.org/2000/svg">
<g id="Logo VCA">
<path id="Vector" d="M0 0.109357H19.3023V0.444688L12.8318 3.01434L25.8856 46.5964L33.3605 20.7832C34.4777 17.2076 35.0345 14.1532 35.0345 11.62C35.0345 9.45853 34.5869 7.61785 33.6953 6.08699C32.8037 4.55978 31.3517 3.16378 29.3428 1.89536L25.8856 0.441043V0.109357H44.6275V0.444688C42.0218 2.90135 40.053 5.584 38.7138 8.48898C37.3745 11.394 35.9261 15.4179 34.3613 20.5573L23.2035 58.9964H22.7559L5.46607 3.01434L0 0.444688V0.109357Z" fill="#E9E5DA"/>
<path id="Vector_2" d="M54.1148 31.1967C54.3296 31.8564 53.6527 32.0022 53.3397 31.4045C49.1728 23.1488 48.9217 16.1506 52.4044 10.1146C55.8871 4.07864 62.041 0.841969 71.2627 0.338973C71.9615 0.266075 72.1725 0.925802 71.4956 1.06795C66.3753 2.09946 60.9238 6.69932 57.3137 12.9576C53.7036 19.2159 52.4226 26.2834 54.1148 31.2003V31.1967Z" fill="#E9E5DA"/>
<path id="Vector_3" d="M157.333 59H138.031V58.6647L144.502 56.095L131.448 12.513L123.973 38.3261C122.856 41.9018 122.299 44.9562 122.299 47.4894C122.299 49.6508 122.746 51.4915 123.638 53.0224C124.53 54.5496 125.982 55.9456 127.991 57.214L131.448 58.6683V59.0037H112.706V58.6683C115.312 56.2117 117.28 53.529 118.62 50.624C119.959 47.719 121.407 43.6951 122.972 38.5558L134.126 0.109357H134.574L151.867 56.095L157.333 58.6647V59Z" fill="#E9E5DA"/>
<path id="Vector_4" d="M103.219 27.909C103.004 27.2493 103.681 27.1035 103.994 27.7012C108.161 35.9569 108.412 42.9552 104.929 48.9911C101.446 55.0271 95.2923 58.2637 86.0706 58.7667C85.3719 58.8396 85.1608 58.1799 85.8377 58.0378C90.9581 57.0062 96.4096 52.4064 100.02 46.1481C103.63 39.8898 104.911 32.8223 103.219 27.9054V27.909Z" fill="#E9E5DA"/>
<path id="Vector_5" d="M154.218 3.68864C154.218 5.76988 152.573 7.39915 150.477 7.39915C148.381 7.39915 146.736 5.76623 146.736 3.68864C146.736 1.61105 148.406 0 150.477 0C152.548 0 154.218 1.63292 154.218 3.68864ZM147.642 3.68864C147.642 5.34342 148.858 6.64465 150.477 6.64465C152.097 6.64465 153.29 5.34342 153.29 3.68864C153.29 2.03385 152.1 0.754494 150.477 0.754494C148.854 0.754494 147.642 2.07759 147.642 3.68864ZM149.88 5.60586H149.094V1.93909C149.404 1.86983 149.833 1.79694 150.43 1.79694C151.096 1.79694 151.409 1.91357 151.671 2.10311C151.885 2.24526 152.053 2.52956 152.053 2.88312C152.053 3.30957 151.696 3.61574 151.267 3.75789V3.80528C151.649 3.92191 151.816 4.20621 151.933 4.70557C152.053 5.24866 152.122 5.48558 152.195 5.60586H151.361C151.241 5.46371 151.172 5.15753 151.074 4.70557C151.001 4.3265 150.765 4.13696 150.288 4.13696H149.884V5.60221L149.88 5.60586ZM149.906 3.52462H150.31C150.786 3.52462 151.169 3.38247 151.169 3.0034C151.169 2.64984 150.928 2.43479 150.382 2.43479C150.142 2.43479 150 2.45666 149.906 2.48218V3.52097V3.52462Z" fill="#E9E5DA"/>
</g>
</svg>
