<svg preserveAspectRatio="none" overflow="visible" style="display: block;" width="644" height="161.01" viewBox="0 0 644 161.01" fill="none" xmlns="http://www.w3.org/2000/svg">
<g id="Logo VCA">
<path id="Vector" d="M0 0.296636H52.0729V1.2063L34.6171 8.17706L69.8331 126.403L89.9986 56.3792C93.0126 46.6794 94.5147 38.3936 94.5147 31.5217C94.5147 25.6584 93.3071 20.6651 90.9018 16.5123C88.4965 12.3694 84.5792 8.58245 79.1599 5.14157L69.8331 1.19641V0.296636H120.394V1.2063C113.365 7.87055 108.053 15.1478 104.44 23.0283C100.827 30.9087 96.9201 41.8246 92.6985 55.7661L62.5975 160.041H61.3899L14.7461 8.17706L0 1.2063V0.296636Z" fill="#0C0C0C"/>
<path id="Vector_2" d="M145.989 84.6281C146.568 86.4177 144.742 86.8132 143.898 85.1917C132.656 62.7962 131.979 43.812 141.374 27.4381C150.77 11.0642 167.372 2.28402 192.25 0.919527C194.135 0.721775 194.704 2.51143 192.878 2.89705C179.065 5.69524 164.358 18.1734 154.619 35.1504C144.879 52.1275 141.424 71.2996 145.989 84.6379V84.6281Z" fill="#0C0C0C"/>
<path id="Vector_3" d="M424.447 160.051H372.374V159.141L389.83 152.17L354.614 33.9442L334.449 103.968C331.435 113.668 329.933 121.954 329.933 128.826C329.933 134.689 331.14 139.682 333.546 143.835C335.951 147.978 339.868 151.765 345.288 155.206L354.614 159.151V160.061H304.053V159.151C311.083 152.487 316.394 145.209 320.007 137.329C323.62 129.449 327.527 118.533 331.749 104.591L361.84 0.296636H363.048L409.701 152.17L424.447 159.141V160.051Z" fill="#0C0C0C"/>
<path id="Vector_4" d="M278.459 75.7094C277.879 73.9198 279.705 73.5243 280.55 75.1458C291.791 97.5413 292.468 116.526 283.073 132.899C273.677 149.273 257.076 158.053 232.198 159.418C230.313 159.616 229.743 157.826 231.569 157.44C245.383 154.642 260.09 142.164 269.829 125.187C279.568 108.21 283.024 89.0379 278.459 75.6995V75.7094Z" fill="#0C0C0C"/>
<path id="Vector_5" d="M459.143 95.2276H459.241L459.565 93.8433L463.532 79.4173H466.035L460.635 97.2941H457.729L452.349 79.4173H454.794L458.809 93.8433L459.133 95.2276H459.143Z" fill="#0C0C0C"/>
<path id="Vector_6" d="M478.454 92.1328H472.22L470.581 97.2941H468.254L474.007 79.4173H476.687L482.44 97.2941H480.114L478.445 92.1328H478.454ZM475.323 81.4739C475.087 82.5121 474.763 83.7481 474.351 85.1719C473.938 86.5957 473.438 88.2469 472.849 90.1058H477.826C477.257 88.3458 476.766 86.744 476.363 85.3103C475.961 83.8766 475.627 82.5912 475.381 81.4739H475.332H475.323Z" fill="#0C0C0C"/>
<path id="Vector_7" d="M488.93 79.4173V95.2869H497.51V97.304H486.583V79.4272H488.93V79.4173Z" fill="#0C0C0C"/>
<path id="Vector_8" d="M512.964 81.4245H504.835V87.1395H512.532V89.1071H504.835V95.277H513.14V97.2941H502.488V79.4173H512.964V81.4344V81.4245Z" fill="#0C0C0C"/>
<path id="Vector_9" d="M526.924 92.8941C527.062 93.2896 527.17 93.6258 527.248 93.9125H527.297C527.278 93.7148 527.268 93.4478 527.258 93.1314C527.258 92.815 527.248 92.4393 527.248 91.9943V79.4074H529.595V97.2842H526.846L521.22 84.4204C521.083 84.0842 520.955 83.7481 520.818 83.402C520.68 83.0559 520.553 82.6901 520.415 82.3045H520.337C520.356 82.4726 520.366 82.6802 520.376 82.9373C520.386 83.1944 520.386 83.491 520.386 83.8469V97.2941H518.039V79.4173H521.122L526.394 91.5791C526.61 92.0636 526.787 92.5085 526.924 92.904V92.8941Z" fill="#0C0C0C"/>
<path id="Vector_10" d="M546.736 79.4173V81.4344H541.111V97.304H538.764V81.4344H533.139V79.4173H546.746H546.736Z" fill="#0C0C0C"/>
<path id="Vector_11" d="M557.29 81.3058V95.4056H561.787V97.2941H550.477V95.4056H554.944V81.3058H550.477V79.4173H561.787V81.3058H557.29Z" fill="#0C0C0C"/>
<path id="Vector_12" d="M575.394 92.8941C575.532 93.2896 575.639 93.6258 575.718 93.9125H575.767C575.748 93.7148 575.738 93.4478 575.728 93.1314C575.728 92.815 575.718 92.4393 575.718 91.9943V79.4074H578.064V97.2842H575.316L569.69 84.4204C569.553 84.0842 569.425 83.7481 569.287 83.402C569.15 83.0559 569.022 82.6901 568.885 82.3045H568.806C568.826 82.4726 568.836 82.6802 568.846 82.9373C568.855 83.1944 568.855 83.491 568.855 83.8469V97.2941H566.509V79.4173H569.592L574.864 91.5791C575.08 92.0636 575.257 92.5085 575.394 92.904V92.8941Z" fill="#0C0C0C"/>
<path id="Vector_13" d="M591.544 92.1328H585.31L583.67 97.2941H581.344L587.097 79.4173H589.777L595.53 97.2941H593.203L591.534 92.1328H591.544ZM588.412 81.4739C588.177 82.5121 587.853 83.7481 587.44 85.1719C587.028 86.5957 586.527 88.2469 585.938 90.1058H590.916C590.346 88.3458 589.855 86.744 589.453 85.3103C589.05 83.8766 588.717 82.5912 588.471 81.4739H588.422H588.412Z" fill="#0C0C0C"/>
<path id="Vector_14" d="M454.323 125.622C453.262 124.149 452.732 122.013 452.732 119.225V117.92C452.732 115.151 453.292 113.015 454.421 111.522C455.569 109.98 457.199 109.209 459.32 109.209C463.07 109.209 465.181 111.305 465.633 115.507L463.286 115.883C463.051 112.778 461.725 111.226 459.3 111.226C456.541 111.226 455.157 113.421 455.157 117.801V119.086C455.157 123.655 456.541 125.939 459.3 125.939C461.725 125.939 463.051 124.376 463.286 121.252L465.613 121.726C465.407 123.605 464.798 125.088 463.767 126.156C462.619 127.352 461.077 127.946 459.123 127.946C457.022 127.946 455.422 127.174 454.323 125.632V125.622Z" fill="#0C0C0C"/>
<path id="Vector_15" d="M481.125 127.511H478.778V119.353H471.916V127.511H469.569V109.634H471.916V117.386H478.778V109.634H481.125V127.511Z" fill="#0C0C0C"/>
<path id="Vector_16" d="M492.67 111.522V125.622H497.167V127.511H485.857V125.622H490.324V111.522H485.857V109.634H497.167V111.522H492.67Z" fill="#0C0C0C"/>
<path id="Vector_17" d="M502.792 125.622C501.732 124.149 501.202 122.013 501.202 119.225V117.92C501.202 115.151 501.762 113.015 502.891 111.522C504.039 109.98 505.669 109.209 507.79 109.209C511.54 109.209 513.651 111.305 514.102 115.507L511.756 115.883C511.52 112.778 510.195 111.226 507.77 111.226C505.011 111.226 503.627 113.421 503.627 117.801V119.086C503.627 123.655 505.011 125.939 507.77 125.939C510.195 125.939 511.52 124.376 511.756 121.252L514.083 121.726C513.877 123.605 513.268 125.088 512.237 126.156C511.088 127.352 509.547 127.946 507.593 127.946C505.492 127.946 503.892 127.174 502.792 125.632V125.622Z" fill="#0C0C0C"/>
<path id="Vector_18" d="M526.924 122.349H520.69L519.05 127.511H516.724L522.477 109.634H525.157L530.91 127.511H528.583L526.914 122.349H526.924ZM523.792 111.7C523.557 112.739 523.233 113.974 522.82 115.398C522.408 116.822 521.907 118.473 521.318 120.332H526.296C525.726 118.572 525.236 116.97 524.833 115.537C524.431 114.103 524.097 112.818 523.851 111.7H523.802H523.792Z" fill="#0C0C0C"/>
<path id="Vector_19" d="M462.295 152.566H456.06L454.421 157.727H452.094L457.847 139.85H460.527L466.281 157.727H463.954L462.285 152.566H462.295ZM459.173 141.917C458.937 142.955 458.613 144.191 458.201 145.615C457.788 147.039 457.288 148.69 456.698 150.549H461.676C461.107 148.789 460.616 147.187 460.213 145.753C459.811 144.32 459.477 143.034 459.231 141.917H459.182H459.173Z" fill="#0C0C0C"/>
<path id="Vector_20" d="M475.293 150.252H472.014V157.727H469.668V139.85H475.421C477.355 139.85 478.847 140.305 479.888 141.215C480.948 142.125 481.478 143.41 481.478 145.071C481.478 147.602 480.212 149.214 477.669 149.876L482.038 157.737H479.436L475.293 150.262V150.252ZM472.014 148.383H475.323C477.777 148.383 479.004 147.296 479.004 145.111C479.004 142.925 477.777 141.808 475.323 141.808H472.014V148.383Z" fill="#0C0C0C"/>
<path id="Vector_21" d="M498.041 149.6C498.041 153.831 496.764 156.521 494.202 157.658C494.82 158.479 495.694 158.894 496.804 158.894C497.177 158.894 497.56 158.835 497.962 158.716V160.862C497.226 160.96 496.696 161.01 496.372 161.01C494.388 161.01 493.034 160.041 492.307 158.113C492.14 158.133 491.983 158.142 491.855 158.152C491.718 158.152 491.6 158.162 491.502 158.162C489.352 158.162 487.712 157.401 486.603 155.868C485.513 154.375 484.964 152.289 484.964 149.6V147.988C484.964 145.298 485.513 143.212 486.603 141.719C487.712 140.187 489.342 139.425 491.502 139.425C493.662 139.425 495.292 140.187 496.401 141.719C497.491 143.212 498.041 145.298 498.041 147.988V149.6ZM495.596 147.988C495.596 143.627 494.231 141.442 491.502 141.442C488.773 141.442 487.408 143.627 487.408 147.988V149.6C487.408 153.96 488.773 156.145 491.502 156.145C494.231 156.145 495.596 153.96 495.596 149.6V147.988Z" fill="#0C0C0C"/>
<path id="Vector_22" d="M503.902 139.85V151.765C503.902 153.11 504.226 154.168 504.864 154.939C505.541 155.74 506.494 156.145 507.741 156.145C510.195 156.145 511.422 154.682 511.422 151.765V139.85H513.769V151.765C513.769 153.713 513.288 155.236 512.325 156.353C511.285 157.559 509.753 158.162 507.731 158.162C505.708 158.162 504.167 157.559 503.087 156.353C502.056 155.226 501.546 153.703 501.546 151.765V139.85H503.892H503.902Z" fill="#0C0C0C"/>
<path id="Vector_23" d="M524.98 141.739V155.839H529.477V157.727H518.167V155.839H522.634V141.739H518.167V139.85H529.477V141.739H524.98Z" fill="#0C0C0C"/>
<path id="Vector_24" d="M546.736 139.85V141.867H541.111V157.737H538.764V141.867H533.139V139.85H546.746H546.736Z" fill="#0C0C0C"/>
<path id="Vector_25" d="M561.433 141.867H553.304V147.582H561.001V149.55H553.304V155.72H561.61V157.737H550.958V139.86H561.433V141.877V141.867Z" fill="#0C0C0C"/>
<path id="Vector_26" d="M567.412 155.839C566.352 154.365 565.822 152.23 565.822 149.441V148.136C565.822 145.368 566.381 143.232 567.511 141.739C568.659 140.196 570.289 139.425 572.41 139.425C576.16 139.425 578.271 141.521 578.722 145.724L576.376 146.099C576.14 142.995 574.815 141.442 572.39 141.442C569.631 141.442 568.247 143.637 568.247 148.018V149.303C568.247 153.871 569.631 156.155 572.39 156.155C574.815 156.155 576.14 154.593 576.376 151.468L578.703 151.943C578.497 153.822 577.888 155.305 576.857 156.373C575.708 157.569 574.167 158.162 572.213 158.162C570.112 158.162 568.512 157.391 567.412 155.849V155.839Z" fill="#0C0C0C"/>
<path id="Vector_27" d="M595.206 139.85V141.867H589.581V157.737H587.234V141.867H581.609V139.85H595.216H595.206Z" fill="#0C0C0C"/>
<path id="Vector_28" d="M600.842 139.85V151.765C600.842 153.11 601.166 154.168 601.804 154.939C602.481 155.74 603.433 156.145 604.68 156.145C607.135 156.145 608.362 154.682 608.362 151.765V139.85H610.708V151.765C610.708 153.713 610.227 155.236 609.265 156.353C608.224 157.559 606.693 158.162 604.67 158.162C602.648 158.162 601.107 157.559 600.027 156.353C598.996 155.226 598.485 153.703 598.485 151.765V139.85H600.832H600.842Z" fill="#0C0C0C"/>
<path id="Vector_29" d="M620.703 150.252H617.424V157.727H615.077V139.85H620.83C622.764 139.85 624.257 140.305 625.297 141.215C626.358 142.125 626.888 143.41 626.888 145.071C626.888 147.602 625.621 149.214 623.079 149.876L627.447 157.737H624.846L620.703 150.262V150.252ZM617.424 148.383H620.732C623.186 148.383 624.414 147.296 624.414 145.111C624.414 142.925 623.186 141.808 620.732 141.808H617.424V148.383Z" fill="#0C0C0C"/>
<path id="Vector_30" d="M640.014 152.566H633.78L632.14 157.727H629.813L635.567 139.85H638.247L644 157.727H641.673L640.004 152.566H640.014ZM636.882 141.917C636.647 142.955 636.322 144.191 635.91 145.615C635.498 147.039 634.997 148.69 634.408 150.549H639.386C638.816 148.789 638.325 147.187 637.923 145.753C637.52 144.32 637.186 143.034 636.941 141.917H636.892H636.882Z" fill="#0C0C0C"/>
<path id="Vector_31" d="M416.043 10.0063C416.043 15.6521 411.606 20.0719 405.951 20.0719C400.296 20.0719 395.858 15.6422 395.858 10.0063C395.858 4.37033 400.365 0 405.951 0C411.537 0 416.043 4.42965 416.043 10.0063ZM398.303 10.0063C398.303 14.4952 401.582 18.0251 405.951 18.0251C410.32 18.0251 413.54 14.4952 413.54 10.0063C413.54 5.51729 410.329 2.04674 405.951 2.04674C401.572 2.04674 398.303 5.63594 398.303 10.0063ZM404.341 15.2071H402.22V5.26021C403.055 5.07235 404.213 4.87459 405.823 4.87459C407.62 4.87459 408.464 5.191 409.171 5.70515C409.75 6.09077 410.202 6.862 410.202 7.8211C410.202 8.97795 409.24 9.80851 408.081 10.1941V10.3227C409.112 10.6391 409.564 11.4103 409.878 12.7649C410.202 14.2382 410.388 14.8809 410.585 15.2071H408.337C408.013 14.8215 407.826 13.991 407.561 12.7649C407.365 11.7366 406.726 11.2224 405.44 11.2224H404.351V15.1973L404.341 15.2071ZM404.409 9.56132H405.499C406.785 9.56132 407.816 9.1757 407.816 8.14739C407.816 7.18829 407.168 6.60493 405.696 6.60493C405.048 6.60493 404.665 6.66425 404.409 6.73346V9.55143V9.56132Z" fill="#0C0C0C"/>
</g>
</svg>
